<?xml version="1.0" encoding="UTF-8"?>
<svg version="1.1" xmlns="http://www.w3.org/2000/svg" width="554" height="553">
<path d="M0 0 C1.58914171 1.47292467 3.17287049 2.95172041 4.75 4.4375 C5.41386719 5.03691406 6.07773437 5.63632813 6.76171875 6.25390625 C28.53177542 26.69921302 43.42423458 59.17271551 44.92700195 88.9440918 C45.57253768 127.84340608 37.55653021 159.71234383 12.75 190.4375 C11.70005859 191.76587891 11.70005859 191.76587891 10.62890625 193.12109375 C5.53630714 199.23009518 -0.59843793 204.10886807 -7.25 208.4375 C-7.91 208.4375 -8.57 208.4375 -9.25 208.4375 C-8.70955013 199.51541816 -7.07866685 190.92303296 -5.25 182.1875 C-4.70541166 179.55787975 -4.16488079 176.92747059 -3.625 174.296875 C-3.38523437 173.14670898 -3.14546875 171.99654297 -2.8984375 170.81152344 C1.84740153 146.1174363 -2.90438486 121.8563885 -16.25 100.4375 C-18.77681911 96.97377044 -21.46717303 93.69656334 -24.25 90.4375 C-24.88679688 89.60863281 -25.52359375 88.77976562 -26.1796875 87.92578125 C-41.40554081 69.62602925 -67.31137918 59.44780715 -90.5 57 C-127.75465818 53.80061057 -162.79762329 69.23427863 -190.88232422 92.80761719 C-220.36641863 117.95967636 -239.01718848 155.4622251 -243.05151367 193.87548828 C-244.30947778 210.11297337 -243.83132444 226.53303558 -240.25 242.4375 C-240.08371094 243.18257813 -239.91742188 243.92765625 -239.74609375 244.6953125 C-235.98045784 260.92938731 -229.08038627 275.64810145 -220.95605469 290.13305664 C-219.99719773 291.87103731 -219.11550676 293.65119613 -218.25 295.4375 C-218.58 296.0975 -218.91 296.7575 -219.25 297.4375 C-252.72653615 272.66824471 -275.61478916 236.91562666 -285.25 196.4375 C-285.54414795 195.21957764 -285.54414795 195.21957764 -285.84423828 193.97705078 C-296.88959265 145.92117948 -286.72258657 94.90136745 -261.25 53.16015625 C-253.035722 40.55720149 -243.62561205 29.28607442 -233.25 18.4375 C-232.29480469 17.42042969 -232.29480469 17.42042969 -231.3203125 16.3828125 C-171.97571844 -45.23334497 -65.55496646 -58.08289581 0 0 Z " fill="#343434" transform="translate(374.25,122.5625)"/>
<path d="M0 0 C15.86034427 6.42682197 27.5726234 28.66285872 35 43 C35.47348877 43.90008789 35.47348877 43.90008789 35.95654297 44.81835938 C47.36527646 66.77088234 54.05749481 92.84691002 54.203125 117.609375 C54.21018463 118.40974182 54.21724426 119.21010864 54.22451782 120.034729 C54.44956844 153.04241923 54.44956844 153.04241923 51 168 C50.71793701 169.31000977 50.71793701 169.31000977 50.43017578 170.64648438 C43.97678762 200.15648847 30.90522019 226.54454379 12 250 C11.51418457 250.60682617 11.02836914 251.21365234 10.52783203 251.83886719 C-19.69247716 289.25833457 -64.82870666 314.21840528 -112.65258789 319.81689453 C-152.72616228 322.94275837 -192.25518596 314.01207186 -223.63671875 288.0234375 C-224.80654297 287.02183594 -224.80654297 287.02183594 -226 286 C-226.83144531 285.29101562 -227.66289062 284.58203125 -228.51953125 283.8515625 C-246.7205057 267.91522542 -259.02759236 248.29168317 -266.8125 225.5 C-267.229552 224.292229 -267.229552 224.292229 -267.6550293 223.06005859 C-271.97383297 209.77891561 -273.56416659 196.64341093 -273.4375 182.75 C-273.43445862 182.03521484 -273.43141724 181.32042969 -273.42828369 180.58398438 C-273.35393302 168.70902607 -272.38500508 157.42761229 -269 146 C-268.78569336 145.26974609 -268.57138672 144.53949219 -268.35058594 143.78710938 C-261.57652851 121.48300763 -249.62222864 99.52533834 -231 85 C-230.34 85 -229.68 85 -229 85 C-229.57255121 91.64159405 -230.79277522 97.97546385 -232.28125 104.47265625 C-235.56683795 120.59703627 -235.39223727 138.13493607 -231 154 C-230.7215625 155.01835937 -230.443125 156.03671875 -230.15625 157.0859375 C-226.12799035 170.31668687 -219.59882655 181.31710671 -211 192 C-209.824375 193.5778125 -209.824375 193.5778125 -208.625 195.1875 C-191.14682338 213.91411781 -165.47968302 225.19153482 -139.94921875 226.203125 C-98.66534202 226.96683563 -59.0609838 209.8066429 -29 182 C-2.72864774 156.57471823 14.38167685 119.74740295 15.203125 83.10546875 C15.46857302 56.50354489 11.76760824 32.73852965 1.82885742 7.8840332 C0.71132037 5.07312178 0 3.06079375 0 0 Z " fill="#343434" transform="translate(415,148)"/>
<path d="" fill="#000000" transform="translate(0,0)"/>
</svg>
