<svg width="40" height="40" viewBox="0 0 40 40" fill="none" xmlns="http://www.w3.org/2000/svg">
<rect width="40" height="40" fill="white"/>
<path d="M29.0547 20.0547C29.0547 15.0542 25.0005 11 20 11C14.9996 11 10.9453 15.0542 10.9453 20.0547C10.9453 24.5745 14.2563 28.3201 18.5852 28.9992V22.6723H16.2861V20.054H18.5852V18.0604C18.5852 15.7914 19.9374 14.5374 22.0056 14.5374C22.9956 14.5374 24.0324 14.7147 24.0324 14.7147V16.9429H22.89C21.7649 16.9429 21.4141 17.6409 21.4141 18.3569V20.0547H23.9252L23.5238 22.673H21.4141V29C25.7437 28.3201 29.0547 24.5738 29.0547 20.0547Z" fill="#064685"/>
</svg>
