<svg width="40" height="40" viewBox="0 0 40 40" fill="none" xmlns="http://www.w3.org/2000/svg">
<rect width="40" height="40" fill="white"/>
<path d="M20 11C17.555 11 17.2497 11.0112 16.2897 11.054C15.3312 11.099 14.6787 11.2498 14.105 11.4725C13.5132 11.702 13.0107 12.0102 12.5105 12.5105C12.0102 13.0107 11.7013 13.5125 11.4725 14.105C11.2498 14.6787 11.0982 15.3312 11.054 16.2897C11.009 17.2497 11 17.555 11 20C11 22.445 11.0112 22.7503 11.054 23.7103C11.099 24.668 11.2498 25.3213 11.4725 25.895C11.6985 26.4956 12.0527 27.0398 12.5105 27.4895C12.96 27.9476 13.5042 28.3019 14.105 28.5275C14.6795 28.7495 15.332 28.9017 16.2897 28.946C17.2497 28.991 17.555 29 20 29C22.445 29 22.7503 28.9887 23.7103 28.946C24.668 28.901 25.3213 28.7495 25.895 28.5275C26.4955 28.3013 27.0396 27.9471 27.4895 27.4895C27.9478 27.0402 28.3021 26.4959 28.5275 25.895C28.7495 25.3213 28.9017 24.668 28.946 23.7103C28.991 22.7503 29 22.445 29 20C29 17.555 28.9887 17.2497 28.946 16.2897C28.901 15.332 28.7495 14.678 28.5275 14.105C28.3014 13.5044 27.9472 12.9603 27.4895 12.5105C27.0404 12.052 26.4961 11.6976 25.895 11.4725C25.3213 11.2498 24.668 11.0982 23.7103 11.054C22.7503 11.009 22.445 11 20 11ZM20 12.62C22.4023 12.62 22.6888 12.632 23.6375 12.6732C24.515 12.7145 24.9912 12.86 25.3077 12.9845C25.7292 13.1472 26.0277 13.3423 26.3442 13.6565C26.6585 13.9715 26.8535 14.2707 27.0162 14.6922C27.1392 15.0087 27.2862 15.485 27.326 16.3625C27.3687 17.312 27.3785 17.597 27.3785 20C27.3785 22.403 27.3672 22.6888 27.323 23.6375C27.2772 24.515 27.131 24.9912 27.0073 25.3077C26.8608 25.6983 26.6307 26.0521 26.333 26.3442C26.0421 26.6422 25.6886 26.8718 25.298 27.0162C24.983 27.1392 24.4993 27.2862 23.6218 27.326C22.6663 27.3687 22.385 27.3785 19.9775 27.3785C17.5693 27.3785 17.288 27.3672 16.3333 27.323C15.455 27.2772 14.9712 27.131 14.6562 27.0073C14.2654 26.8626 13.912 26.6322 13.622 26.333C13.3209 26.0441 13.09 25.69 12.947 25.298C12.8232 24.983 12.6778 24.4993 12.632 23.6218C12.5983 22.6768 12.5863 22.385 12.5863 19.9887C12.5863 17.5917 12.5983 17.2993 12.632 16.343C12.6778 15.4655 12.8232 14.9825 12.947 14.6675C13.1045 14.24 13.3063 13.9475 13.622 13.6318C13.9363 13.3175 14.2295 13.115 14.6562 12.9583C14.9712 12.8338 15.4445 12.6875 16.322 12.6425C17.2783 12.6088 17.5595 12.5975 19.9662 12.5975L20 12.62V12.62ZM20 15.3785C19.3931 15.3785 18.7921 15.498 18.2314 15.7303C17.6707 15.9625 17.1613 16.303 16.7321 16.7321C16.303 17.1613 15.9625 17.6707 15.7303 18.2314C15.498 18.7921 15.3785 19.3931 15.3785 20C15.3785 20.6069 15.498 21.2079 15.7303 21.7686C15.9625 22.3293 16.303 22.8387 16.7321 23.2679C17.1613 23.697 17.6707 24.0375 18.2314 24.2697C18.7921 24.502 19.3931 24.6215 20 24.6215C21.2257 24.6215 22.4012 24.1346 23.2679 23.2679C24.1346 22.4012 24.6215 21.2257 24.6215 20C24.6215 18.7743 24.1346 17.5988 23.2679 16.7321C22.4012 15.8654 21.2257 15.3785 20 15.3785V15.3785ZM20 23C18.3425 23 17 21.6575 17 20C17 18.3425 18.3425 17 20 17C21.6575 17 23 18.3425 23 20C23 21.6575 21.6575 23 20 23ZM25.8845 15.1962C25.8741 15.4757 25.7557 15.7403 25.5543 15.9343C25.3529 16.1283 25.0842 16.2367 24.8045 16.2367C24.5248 16.2367 24.2561 16.1283 24.0547 15.9343C23.8533 15.7403 23.7349 15.4757 23.7245 15.1962C23.7245 14.9098 23.8383 14.6351 24.0408 14.4326C24.2434 14.23 24.5181 14.1163 24.8045 14.1163C25.0909 14.1163 25.3656 14.23 25.5682 14.4326C25.7707 14.6351 25.8845 14.9098 25.8845 15.1962V15.1962Z" fill="#064685"/>
</svg>
