<svg width="40" height="40" viewBox="0 0 40 40" fill="none" xmlns="http://www.w3.org/2000/svg">
<rect width="40" height="40" fill="white"/>
<path d="M27.6154 11H12.3846C12.0174 11 11.6652 11.1459 11.4055 11.4055C11.1459 11.6652 11 12.0174 11 12.3846V27.6154C11 27.9826 11.1459 28.3348 11.4055 28.5945C11.6652 28.8541 12.0174 29 12.3846 29H27.6154C27.9826 29 28.3348 28.8541 28.5945 28.5945C28.8541 28.3348 29 27.9826 29 27.6154V12.3846C29 12.0174 28.8541 11.6652 28.5945 11.4055C28.3348 11.1459 27.9826 11 27.6154 11ZM17.2308 24.1538C17.2308 24.3375 17.1578 24.5135 17.028 24.6434C16.8982 24.7732 16.7221 24.8462 16.5385 24.8462C16.3549 24.8462 16.1788 24.7732 16.0489 24.6434C15.9191 24.5135 15.8462 24.3375 15.8462 24.1538V18.6154C15.8462 18.4318 15.9191 18.2557 16.0489 18.1258C16.1788 17.996 16.3549 17.9231 16.5385 17.9231C16.7221 17.9231 16.8982 17.996 17.028 18.1258C17.1578 18.2557 17.2308 18.4318 17.2308 18.6154V24.1538ZM16.5385 17.2308C16.3331 17.2308 16.1323 17.1699 15.9615 17.0558C15.7907 16.9416 15.6576 16.7795 15.579 16.5897C15.5004 16.4 15.4799 16.1912 15.52 15.9897C15.56 15.7883 15.6589 15.6032 15.8042 15.458C15.9494 15.3128 16.1344 15.2139 16.3359 15.1738C16.5373 15.1337 16.7461 15.1543 16.9359 15.2329C17.1256 15.3115 17.2878 15.4446 17.4019 15.6154C17.516 15.7861 17.5769 15.9869 17.5769 16.1923C17.5769 16.4677 17.4675 16.7319 17.2728 16.9266C17.078 17.1214 16.8139 17.2308 16.5385 17.2308ZM24.8462 24.1538C24.8462 24.3375 24.7732 24.5135 24.6434 24.6434C24.5135 24.7732 24.3375 24.8462 24.1538 24.8462C23.9702 24.8462 23.7941 24.7732 23.6643 24.6434C23.5345 24.5135 23.4615 24.3375 23.4615 24.1538V21.0385C23.4615 20.5794 23.2792 20.1392 22.9546 19.8146C22.63 19.49 22.1898 19.3077 21.7308 19.3077C21.2717 19.3077 20.8315 19.49 20.5069 19.8146C20.1823 20.1392 20 20.5794 20 21.0385V24.1538C20 24.3375 19.9271 24.5135 19.7972 24.6434C19.6674 24.7732 19.4913 24.8462 19.3077 24.8462C19.1241 24.8462 18.948 24.7732 18.8182 24.6434C18.6883 24.5135 18.6154 24.3375 18.6154 24.1538V18.6154C18.6162 18.4458 18.6793 18.2824 18.7926 18.1563C18.9059 18.0301 19.0616 17.9499 19.2301 17.9309C19.3986 17.9119 19.5683 17.9555 19.7068 18.0532C19.8454 18.151 19.9432 18.2962 19.9818 18.4613C20.4502 18.1436 20.9962 17.9595 21.5613 17.9287C22.1264 17.8979 22.6892 18.0216 23.1893 18.2866C23.6893 18.5515 24.1078 18.9477 24.3997 19.4325C24.6916 19.9173 24.846 20.4725 24.8462 21.0385V24.1538Z" fill="#064685"/>
</svg>
