<svg width="384" height="383" viewBox="0 0 384 383" fill="none" xmlns="http://www.w3.org/2000/svg">
<path d="M70.7116 334.744C0.580713 282.717 -19.6915 184.139 20.305 106.373C60.8494 26.9634 151.8 -15.7535 231.245 6.70026C334.25 35.7258 368.22 159.495 294.254 235.071C289.871 239.452 284.939 242.19 280.008 246.024C283.296 224.666 290.418 204.403 289.323 184.139C284.939 121.159 223.575 80.6332 160.567 96.5151C64.6847 121.159 15.9218 230.69 61.9452 318.314C64.6847 323.791 67.9721 329.267 70.7116 334.744Z" fill="#064685"/>
<path d="M101.16 147.639C98.4175 160.785 95.6751 169.548 95.1267 178.311C87.4483 244.037 141.746 297.713 208.109 289.497C312.864 276.352 373.195 176.121 335.351 77.5319C333.706 73.6979 332.609 69.3162 329.866 62.7437C379.228 103.275 397.327 185.979 373.743 254.444C338.642 356.319 222.369 411.09 134.067 367.821C55.0893 329.481 32.6025 229.249 86.3514 161.332C89.6421 156.951 94.0298 154.212 101.16 147.639Z" fill="#064685"/>
</svg>