<?xml version="1.0" encoding="UTF-8"?>
<svg version="1.1" xmlns="http://www.w3.org/2000/svg" width="611" height="608">
<path d="M0 0 C0.92264648 -0.00705963 1.84529297 -0.01411926 2.79589844 -0.02139282 C41.08044082 -0.24789763 41.08044082 -0.24789763 57.98828125 3.203125 C59.00229004 3.40180176 60.01629883 3.60047852 61.06103516 3.80517578 C119.90314119 15.57359699 173.72001333 47.25180388 207.98828125 97.203125 C240.36350208 145.98696591 253.52701679 204.50939529 242.38623047 262.32763672 C239.3450511 277.18271586 234.9656382 291.27519625 228.98828125 305.203125 C228.6442627 306.00943359 228.30024414 306.81574219 227.94580078 307.64648438 C217.9828349 330.62865463 203.5820293 350.57247242 186.98828125 369.203125 C186.27285156 370.01652344 185.55742187 370.82992188 184.8203125 371.66796875 C178.06403104 378.89470694 169.54130213 385.2175657 160.98828125 390.203125 C160.32828125 390.203125 159.66828125 390.203125 158.98828125 390.203125 C160.79125078 379.19552158 162.75597693 368.23000815 164.96484375 357.296875 C165.14017639 356.42844971 165.31550903 355.56002441 165.49615479 354.6652832 C166.37913546 350.30246154 167.27013345 345.94141607 168.16992188 341.58203125 C176.35435017 301.64479556 174.40651366 263.27838765 153.98828125 227.203125 C153.61864258 226.54505859 153.24900391 225.88699219 152.86816406 225.20898438 C132.56950534 189.63047163 98.00711119 165.35254635 58.98828125 154.203125 C7.83985299 140.33180368 -45.16709482 152.03157097 -90.70166016 177.72070312 C-116.12733676 192.66723997 -139.84620682 211.88973184 -158.01171875 235.203125 C-159.0192039 236.4585961 -160.02703952 237.713786 -161.03515625 238.96875 C-200.80503302 289.06660198 -219.52416252 354.75935362 -213.06665039 418.30004883 C-208.8502253 454.14821121 -196.53320375 486.82077042 -179.48193359 518.43701172 C-177.24209789 522.65111643 -175.11834596 526.92119535 -173.01171875 531.203125 C-177.40926933 529.56869046 -180.56969085 527.33354758 -184.07421875 524.265625 C-184.63931152 523.77835938 -185.2044043 523.29109375 -185.78662109 522.7890625 C-199.17434534 511.1806485 -212.07957304 499.20609816 -223.01171875 485.203125 C-223.73464111 484.29481934 -223.73464111 484.29481934 -224.47216797 483.36816406 C-255.08162903 444.88933393 -274.62902991 399.60665486 -283.01171875 351.203125 C-283.17542969 350.31125488 -283.33914063 349.41938477 -283.5078125 348.50048828 C-288.82026449 318.50818445 -288.74108305 284.11879109 -283.01171875 254.203125 C-282.8401123 253.24792969 -282.66850586 252.29273438 -282.49169922 251.30859375 C-277.1587681 221.91313426 -268.01248686 193.39070856 -253.94433594 166.97558594 C-253.03428111 165.2460053 -252.16689337 163.494186 -251.30078125 161.7421875 C-242.67068365 144.67042238 -231.5577333 128.44526408 -219.30957031 113.76123047 C-217.99435771 112.18228261 -216.70241364 110.58604253 -215.41015625 108.98828125 C-209.16886722 101.38936368 -202.37708398 94.36430136 -195.44921875 87.390625 C-194.58699707 86.51913818 -193.72477539 85.64765137 -192.83642578 84.74975586 C-186.87020638 78.81234513 -180.59850195 73.43760738 -174.01171875 68.203125 C-172.87754346 67.27379612 -171.74448381 66.34310133 -170.61328125 65.41015625 C-155.20744222 53.01674506 -138.59116104 42.24457217 -121.01171875 33.203125 C-119.64418457 32.49591309 -119.64418457 32.49591309 -118.24902344 31.77441406 C-82.05106684 13.24752119 -41.0040274 0.2099002 0 0 Z M-178.7109375 75.04296875 C-180.65596136 76.8691117 -182.63774456 78.6092471 -184.66015625 80.34765625 C-196.71413044 90.85829599 -208.36252186 102.42923909 -218.01171875 115.203125 C-218.77871094 116.16476563 -219.54570312 117.12640625 -220.3359375 118.1171875 C-269.96434573 180.54626169 -290.76576659 258.39285624 -283.01171875 337.203125 C-282.02894307 345.26825652 -280.61795461 353.24086477 -279.01171875 361.203125 C-278.75116699 362.50757568 -278.75116699 362.50757568 -278.48535156 363.83837891 C-274.0027182 385.65910898 -266.89397136 407.22759667 -257.01171875 427.203125 C-256.53186523 428.17523926 -256.05201172 429.14735352 -255.55761719 430.14892578 C-249.13515914 443.04726342 -242.47945674 455.52984465 -234.01171875 467.203125 C-233.25246094 468.25371094 -232.49320313 469.30429687 -231.7109375 470.38671875 C-209.06343438 501.61565216 -209.06343438 501.61565216 -179.01171875 525.203125 C-180.57256425 519.81346512 -183.0394471 515.16835689 -185.69921875 510.265625 C-203.36520238 477.10177018 -215.04145626 441.08554731 -216.01171875 403.203125 C-216.03218262 402.46416992 -216.05264648 401.72521484 -216.07373047 400.96386719 C-217.6123072 337.00485102 -195.74158822 272.75346021 -152.0703125 225.44921875 C-150.27792913 223.49358224 -148.58131931 221.49268242 -146.88671875 219.453125 C-137.55400028 208.7809886 -126.54102559 199.41400842 -115.01171875 191.203125 C-114.45613281 190.80706055 -113.90054688 190.41099609 -113.328125 190.00292969 C-68.7129081 158.56488286 -13.86069611 139.75783544 40.98828125 148.203125 C68.77512633 153.41532659 94.69207743 163.51734573 116.98828125 181.203125 C117.53387695 181.63061035 118.07947266 182.0580957 118.64160156 182.49853516 C150.28093749 207.51158954 169.02007493 243.5339136 174.60546875 283.21484375 C177.78652475 311.71797206 170.86363527 339.9095131 164.89868164 367.57714844 C164.69995453 368.51375809 164.50122742 369.45036774 164.29647827 370.4153595 C163.91998364 372.18881808 163.53647256 373.9608061 163.14492798 375.73100281 C162.89372696 376.92267815 162.89372696 376.92267815 162.63745117 378.13842773 C162.48741135 378.82976303 162.33737152 379.52109833 162.18278503 380.23338318 C161.96351735 382.45390931 162.3322027 384.08410628 162.98828125 386.203125 C204.37979977 358.7122064 230.82892137 309.48259018 240.515625 261.59619141 C241.48248789 256.48520233 242.32962211 251.36302444 242.98828125 246.203125 C243.12967529 245.10641479 243.12967529 245.10641479 243.27392578 243.98754883 C249.66700058 188.28545437 232.49267407 131.09680981 197.98828125 87.203125 C187.27163022 73.90853106 175.54068315 61.63219189 161.98828125 51.203125 C161.44896973 50.78208496 160.9096582 50.36104492 160.35400391 49.92724609 C81.4177631 -11.40789251 -25.6136558 -10.09774445 -178.7109375 75.04296875 Z " fill="#B6B6B6" transform="translate(286.01171875,-0.203125)"/>
<path d="M0 0 C5.64374818 3.39163245 10.06291098 7.71632789 14.6875 12.375 C15.48623535 13.179375 16.2849707 13.98375 17.10791016 14.8125 C23.65703564 21.49555172 29.58866841 28.37190519 35 36 C35.47066895 36.65871094 35.94133789 37.31742188 36.42626953 37.99609375 C61.16281997 72.96424797 76.00449121 112.87103959 83 155 C83.24556641 156.39968018 83.24556641 156.39968018 83.49609375 157.82763672 C88.80588024 189.20913309 88.61099953 224.68241141 83 256 C82.82839355 256.98500488 82.65678711 257.97000977 82.47998047 258.98486328 C73.24685396 310.53029787 51.11559015 358.49420753 18 399 C17.56171875 399.54269531 17.1234375 400.08539063 16.671875 400.64453125 C4.38248589 415.78939607 -9.5254803 430.11048633 -25 442 C-26.09955679 442.90759221 -27.19567535 443.81935954 -28.2890625 444.734375 C-42.96964297 456.93347672 -59.14602536 467.07856664 -76 476 C-76.95737061 476.50756836 -76.95737061 476.50756836 -77.93408203 477.02539062 C-104.52475367 490.99166857 -132.51235775 500.38048487 -162 506 C-162.8981543 506.17934082 -163.79630859 506.35868164 -164.72167969 506.54345703 C-193.83897014 512.15407921 -227.08575654 511.21415046 -256 505 C-257.53575684 504.67854004 -257.53575684 504.67854004 -259.10253906 504.35058594 C-293.20118208 497.02774513 -325.96473782 482.14480711 -353 460 C-353.51836426 459.58314941 -354.03672852 459.16629883 -354.57080078 458.73681641 C-368.66515165 447.38772466 -381.42881898 434.71270431 -392 420 C-392.47501953 419.34225586 -392.95003906 418.68451172 -393.43945312 418.00683594 C-414.93705932 387.88469603 -427.41218905 354.39520271 -433 318 C-433.15795044 316.98969727 -433.15795044 316.98969727 -433.3190918 315.95898438 C-440.7442542 260.41421672 -423.43166015 204.43777724 -390.65625 159.80859375 C-385.12009849 152.75802399 -378.72194363 146.88170067 -372 141 C-371.2575 140.33226562 -370.515 139.66453125 -369.75 138.9765625 C-365.2693662 135 -365.2693662 135 -363 135 C-363.40627331 136.92979824 -363.81261414 138.85958229 -364.21923828 140.78930664 C-364.57809742 142.49529061 -364.93581429 144.20151519 -365.29248047 145.90795898 C-366.19770284 150.23128524 -367.11708328 154.54982674 -368.0859375 158.859375 C-378.25427068 204.47039741 -373.08789595 250.04703185 -348 290 C-325.24118257 324.47291463 -290.84646404 348.03258611 -250.63671875 357.26171875 C-212.90811967 364.92090804 -175.13207067 359.35450322 -139 347 C-138.12569336 346.70254883 -137.25138672 346.40509766 -136.35058594 346.09863281 C-103.6270583 334.76607457 -74.15762409 316.8043829 -49 293 C-48.37818848 292.4121875 -47.75637695 291.824375 -47.11572266 291.21875 C-36.62573747 281.21742101 -27.37802329 270.82526074 -19 259 C-18.56139648 258.3901123 -18.12279297 257.78022461 -17.67089844 257.15185547 C5.4569928 224.78523255 18.80678497 187.27000034 24 148 C24.103125 147.2562915 24.20625 146.51258301 24.3125 145.74633789 C25.36841403 136.98130868 25.24384825 128.1276453 25.25 119.3125 C25.25067474 118.44351074 25.25134949 117.57452148 25.25204468 116.67919922 C25.23509346 102.91290685 24.60111462 89.551455 22 76 C21.82307617 75.05850098 21.64615234 74.11700195 21.46386719 73.14697266 C17.46664477 52.3634872 11.07425257 32.67598858 3.60693359 12.91381836 C3.3691217 12.27980103 3.13130981 11.64578369 2.8862915 10.99255371 C2.23295589 9.25259534 1.57392597 7.51477821 0.91455078 5.77709961 C0 3 0 3 0 0 Z M4 6 C5.72208292 12.07123046 7.67715438 18.04659729 9.7421875 24.0078125 C15.66812805 41.1696625 21.12597437 58.01817963 24 76 C24.15791016 76.90347168 24.31582031 77.80694336 24.47851562 78.73779297 C29.07778448 105.46749435 28.82317785 134.33010516 24 161 C23.83371094 161.93875977 23.66742187 162.87751953 23.49609375 163.84472656 C19.54274449 185.44904814 12.64607926 206.27333341 3 226 C2.65888184 226.70141113 2.31776367 227.40282227 1.96630859 228.12548828 C-8.78694554 249.95754919 -23.15696285 269.50133467 -40 287 C-40.55204102 287.57927246 -41.10408203 288.15854492 -41.67285156 288.75537109 C-49.36765125 296.79953491 -57.33382109 304.09524274 -66.28076172 310.72509766 C-67.94971322 311.9627098 -69.60177553 313.22053819 -71.25390625 314.48046875 C-100.5015891 336.41949757 -135.43358464 350.42658993 -171 358 C-172.42771729 358.31541748 -172.42771729 358.31541748 -173.88427734 358.63720703 C-187.54958825 361.56598485 -201.00872797 362.38446477 -214.9375 362.4375 C-215.70347504 362.44376404 -216.46945007 362.45002808 -217.25863647 362.45648193 C-232.32745044 362.53456393 -247.0216151 360.5832425 -261.5 356.3125 C-262.36890869 356.05903809 -263.23781738 355.80557617 -264.13305664 355.54443359 C-303.68464012 343.54689203 -336.8739086 315.83801153 -356.57299805 279.68676758 C-365.44065889 262.91769051 -371.79999492 243.88575788 -374 225 C-374.10957031 224.19949219 -374.21914063 223.39898437 -374.33203125 222.57421875 C-376.98393135 199.83859519 -374.08144385 177.5809248 -369.03271484 155.42944336 C-368.77184082 154.27968018 -368.5109668 153.12991699 -368.2421875 151.9453125 C-368.0035498 150.91937988 -367.76491211 149.89344727 -367.51904297 148.83642578 C-367.02718076 146.1485353 -366.90062893 143.72426731 -367 141 C-396.98221996 157.608067 -414.96093257 199.35575321 -424.31201172 230.56787109 C-425.58217425 235.05806241 -426.69206933 239.58059037 -427.75 244.125 C-427.94875732 244.9703833 -428.14751465 245.8157666 -428.35229492 246.68676758 C-431.52951265 261.02850777 -432.41217719 275.23940049 -432.375 289.875 C-432.37412384 290.72483459 -432.37324768 291.57466919 -432.37234497 292.45025635 C-432.21871726 337.89322565 -417.81501057 382.81257822 -390 419 C-388.96746094 420.34964844 -388.96746094 420.34964844 -387.9140625 421.7265625 C-375.69991506 437.32011832 -361.92012395 451.23295186 -346 463 C-344.72382813 463.95132813 -344.72382813 463.95132813 -343.421875 464.921875 C-291.77632996 502.20243401 -226.70664142 514.42473399 -164.36572266 504.42504883 C-150.24838434 501.99132601 -136.60364009 498.46563975 -123 494 C-122.09652832 493.70786621 -121.19305664 493.41573242 -120.26220703 493.11474609 C-67.42864854 475.78426712 -15.87452787 440.45615839 18 396 C18.76957031 395.03578125 19.53914063 394.0715625 20.33203125 393.078125 C71.40222309 328.79872449 91.49950441 247.54828144 82.62548828 166.58300781 C75.13911849 105.94794972 50.08987203 47.93543654 5 6 C4.67 6 4.34 6 4 6 Z " fill="#B6B6B6" transform="translate(525,99)"/>
</svg>
