<svg width="611" height="608" viewBox="0 0 611 608" fill="none" xmlns="http://www.w3.org/2000/svg">
<path d="M111.115 529.463C1.10089 446.553 -30.4597 291.034 32.7576 168.206L32.7583 168.205C97.1829 42.1132 241.689 -25.682 367.864 9.95368L367.864 9.95379C531.427 56.0113 585.347 252.381 467.916 372.287C464.457 375.741 460.778 378.553 456.971 381.268C455.842 382.074 454.699 382.873 453.548 383.678C451.154 385.351 448.72 387.052 446.287 388.9C448.001 378.085 450.31 367.456 452.598 356.93C453.807 351.361 455.011 345.821 456.117 340.297C459.389 323.956 461.797 307.794 460.922 291.619L460.921 291.611C453.922 191.111 355.938 126.493 255.401 151.816L255.398 151.817C102.504 191.087 24.7461 365.615 98.1336 505.246C100.317 509.607 102.718 513.968 105.113 518.318L105.116 518.322C107.164 522.041 109.208 525.753 111.115 529.463Z" stroke="#B8B8B8"/>
<path d="M530.427 112.406C529.276 109.052 527.955 105.271 526.166 100.845C603.278 165.582 631.413 295.84 594.221 403.832C538.5 565.584 353.952 652.47 213.888 583.823L213.886 583.822C88.618 522.998 52.9545 363.992 138.204 256.251L138.204 256.251L138.211 256.241C140.793 252.803 143.81 250.001 147.619 246.74C148.586 245.912 149.604 245.054 150.679 244.15C153.54 241.739 156.798 238.995 160.544 235.587C159.266 241.617 157.998 247.054 156.823 252.089C156.093 255.218 155.399 258.193 154.762 261.057C153.017 268.897 151.703 275.891 151.264 282.894C139.028 387.722 225.623 473.331 331.438 460.229L331.438 460.228C498.295 439.286 594.406 279.58 534.127 122.513L534.123 122.504L534.12 122.495C532.947 119.762 531.951 116.852 530.803 113.503C530.68 113.142 530.555 112.777 530.427 112.406Z" stroke="#B8B8B8"/>
</svg>
