<svg width="23" height="23" viewBox="0 0 23 23" fill="none" xmlns="http://www.w3.org/2000/svg">
<path d="M21.9989 20.9494L16.5755 15.2561C17.9699 13.5829 18.734 11.4778 18.734 9.28624C18.734 4.16589 14.6066 0 9.53367 0C4.46071 0 0.333374 4.16589 0.333374 9.28624C0.333374 14.4066 4.46071 18.5725 9.53367 18.5725C11.4381 18.5725 13.253 17.9927 14.8046 16.8921L20.2692 22.6286C20.4976 22.868 20.8048 23 21.1341 23C21.4457 23 21.7413 22.8801 21.9657 22.6621C22.4425 22.199 22.4577 21.431 21.9989 20.9494ZM9.53367 2.4225C13.2834 2.4225 16.3339 5.50149 16.3339 9.28624C16.3339 13.071 13.2834 16.15 9.53367 16.15C5.78395 16.15 2.73345 13.071 2.73345 9.28624C2.73345 5.50149 5.78395 2.4225 9.53367 2.4225Z" fill="white"/>
</svg>
