<svg width="79" height="65" viewBox="0 0 79 65" fill="none" xmlns="http://www.w3.org/2000/svg">
<path d="M0.5 64V64.5H1H30.306H30.806V64V34.7222V34.2222H30.306H17.3806C17.5662 32.8805 17.8225 31.5568 18.1492 30.251C18.9017 27.2438 20.2217 24.1307 22.1174 20.9111C24.012 17.6934 26.5763 14.2756 29.8165 10.6576L30.1821 10.2495L29.7422 9.9227L18.537 1.59863L18.1906 1.34135L17.8854 1.64628C13.6447 5.88294 10.1694 10.3178 7.46374 14.9516L7.4637 14.9516L7.46034 14.9575C4.94963 19.3952 3.11242 23.9339 1.95152 28.5731L1.94912 28.5827L1.9471 28.5924C0.981479 33.2229 0.5 38.2328 0.5 43.6204V64ZM48.194 64V64.5H48.694H78H78.5V64V34.7222V34.2222H78H65.0747C65.2603 32.8805 65.5165 31.5568 65.8432 30.251C66.5958 27.2438 67.9157 24.1307 69.8115 20.9111C71.7061 17.6934 74.2703 14.2756 77.5105 10.6576L77.8761 10.2495L77.4362 9.9227L66.231 1.59863L65.8847 1.34135L65.5794 1.64628C61.3387 5.88294 57.8634 10.3178 55.1578 14.9516L55.1577 14.9516L55.1544 14.9575C52.6437 19.3952 50.8064 23.9339 49.6456 28.5731L49.6432 28.5827L49.6411 28.5924C48.6755 33.2229 48.194 38.2328 48.194 43.6204V64Z" stroke="#B8B8B8"/>
</svg>
