<svg width="40" height="40" viewBox="0 0 40 40" fill="none" xmlns="http://www.w3.org/2000/svg">
<rect width="40" height="40" fill="#323232"/>
<path d="M30.8002 13.1058C30.6557 13.4108 30.3868 13.7961 29.9935 14.2617C29.6002 14.7272 29.1145 15.1366 28.5366 15.4898C28.5526 15.6182 28.5647 15.7386 28.5727 15.851C28.635 17.5812 28.2206 19.3763 27.6456 20.8718C26.531 23.6524 24.8232 25.8902 22.3839 27.4097C19.8402 28.8688 16.8778 29.1792 14.1483 28.9148C12.3363 28.7067 10.5503 28.115 9.19971 27.0004C11.67 27.2957 13.9753 26.4553 15.7978 25.098C13.7733 25.1492 12.3023 23.6847 11.6078 21.9916C11.9209 22.0736 12.2484 22.0637 12.547 22.0397C12.9144 22.0052 13.2633 21.9707 13.6065 21.8953C12.3156 21.4788 11.186 20.7131 10.5964 19.5594C10.2506 18.8284 10.0944 18.1323 10.0907 17.344C10.6956 17.6625 11.4233 17.9729 12.0894 17.946C11.0834 17.0937 10.2768 16.0045 10.1269 14.7553C10.0322 13.7137 10.2928 12.7628 10.6687 11.8776C12.1736 13.5316 13.8622 14.8927 15.8099 15.7306C17.1419 16.276 18.4701 16.5677 19.8435 16.5734C19.6849 15.3467 19.8082 14.1604 20.3853 13.1539C21.0644 12.0717 22.0553 11.4439 23.1666 11.1311C24.7567 10.7234 26.3076 11.2993 27.2845 12.4074C28.3379 12.2936 29.3469 11.8263 30.1501 11.3478C29.8088 12.3812 29.1443 13.4087 28.1754 13.9004C29.0979 13.7296 29.9782 13.4565 30.8002 13.1058Z" fill="white"/>
</svg>
