<svg width="53" height="53" viewBox="0 0 53 53" fill="none" xmlns="http://www.w3.org/2000/svg">
<path d="M9.76111 46.3004C0.0801624 39.0882 -2.71824 25.4231 2.80293 14.6427C8.39973 3.63468 20.9547 -2.2869 31.9214 0.825728C46.1403 4.84937 50.8295 22.0068 40.6191 32.4834C40.0141 33.0907 39.3334 33.4703 38.6527 34.0018C39.1065 31.041 40.0897 28.232 39.9385 25.4231C39.3334 16.6925 30.8626 11.0746 22.1648 13.2762C8.92916 16.6925 2.19787 31.8761 8.551 44.0229C8.92916 44.7821 9.38295 45.5412 9.76111 46.3004Z" fill="#012FCB"/>
<path d="M13.9962 20.4127C13.6181 22.2347 13.2399 23.4494 13.1643 24.6641C12.1054 33.7742 19.593 41.2141 28.7446 40.0753C43.1904 38.2533 51.5099 24.3604 46.2913 10.6952C46.0644 10.1638 45.9131 9.55644 45.535 8.64542C52.3419 14.2633 54.8377 25.7269 51.5856 35.2166C46.7451 49.3373 30.711 56.9291 18.5342 50.9316C7.64312 45.6173 4.54218 31.7244 11.9542 22.3106C12.408 21.7033 13.013 21.3237 13.9962 20.4127Z" fill="#012FCB"/>
</svg>
